<?xml version='1.0' encoding='iso-8859-1'?>
<svg version="1.1" xmlns="http://www.w3.org/2000/svg" viewBox="0 0 30 30" xmlns:xlink="http://www.w3.org/1999/xlink" enable-background="new 0 0 30 30">
  <g>
    <g>
      <path d="M29.908,14.592c-0.05-0.126-0.125-0.244-0.227-0.347l-2.92-2.956c-0.402-0.408-1.057-0.408-1.459,0    c-0.403,0.408-0.403,1.07,0,1.478L26.521,14h-3.602c-0.402-4.019-3.154-7.344-6.887-8.529V5.462C15.451,5.098,15,4.62,15,3.969    c0-0.651,0.42-1.754,1-1.962V2c0.553,0,1-0.447,1-1c0-0.553-0.447-1-1-1c-0.156,0-0.299,0.043-0.432,0.106    C14.069,0.398,13,2.359,13,3.969c0,1.762,1.369,2.955,3.031,3.637V7.601c2.617,1.074,4.527,3.495,4.892,6.399H10.44l-2.678-2.711    C7.539,11.063,7.24,10.976,6.948,11H1.117c-0.17-0.015-0.339,0.006-0.499,0.077C0.256,11.227,0,11.583,0,12    c0,0.005,0.003,0.009,0.003,0.014c-0.004,0.272,0.094,0.546,0.299,0.754l2.19,2.216L0.302,17.2    c-0.209,0.212-0.305,0.492-0.296,0.771C0.006,17.981,0,17.989,0,18c0,0.553,0.448,1,1,1h6c0.145,0,0.281-0.034,0.405-0.09    c0.13-0.051,0.252-0.126,0.357-0.232L10.408,16h10.516c-0.365,2.904-2.275,5.325-4.892,6.399v-0.005    C14.181,23.014,13,24.207,13,25.969c0,1.621,0.956,3.65,2.572,3.927C15.703,29.958,15.846,30,16,30c0.553,0,1-0.447,1-1    c0-0.553-0.447-1-1-1v-0.007c-0.58-0.208-1-1.373-1-2.025c0-0.638,0.521-1.225,1-1.445v0.018c3.748-1.178,6.514-4.511,6.918-8.541    h3.57l-1.186,1.2c-0.403,0.408-0.403,1.069,0,1.478c0.402,0.408,1.057,0.408,1.459,0l2.916-2.95C29.873,15.545,30,15.289,30,15    C30,14.854,29.965,14.718,29.908,14.592z M6.5,17H3.42l1.262-1.277c0.403-0.408,0.403-1.069,0-1.478L3.452,13h3.08l1.96,1.983    L6.5,17z"/>
    </g>
  </g>
</svg>
