<svg xmlns="http://www.w3.org/2000/svg" viewBox="0 0 30 30"><path d="M29.908 14.592a1.032 1.032 0 00-.227-.347l-2.92-2.956a1.023 1.023 0 00-1.459 0 1.055 1.055 0 000 1.478L26.521 14h-3.602c-.402-4.019-3.154-7.344-6.887-8.529v-.009C15.451 5.098 15 4.62 15 3.969c0-.651.42-1.754 1-1.962V2a1 1 0 100-2c-.156 0-.299.043-.432.106C14.069.398 13 2.359 13 3.969c0 1.762 1.369 2.955 3.031 3.637v-.005A8 8 0 0120.923 14H10.44l-2.678-2.711A1.01 1.01 0 006.948 11H1.117a.998.998 0 00-.499.077A1 1 0 000 12c0 .005.003.009.003.014-.004.272.094.546.299.754l2.19 2.216L.302 17.2a1.042 1.042 0 00-.296.771c0 .01-.006.018-.006.029a1 1 0 001 1h6a.98.98 0 00.405-.09c.13-.051.252-.126.357-.232L10.408 16h10.516a8 8 0 01-4.892 6.399v-.005c-1.851.62-3.032 1.813-3.032 3.575 0 1.621.956 3.65 2.572 3.927A.997.997 0 0016 30a1 1 0 100-2v-.007c-.58-.208-1-1.373-1-2.025 0-.638.521-1.225 1-1.445v.018c3.748-1.178 6.514-4.511 6.918-8.541h3.57l-1.186 1.2a1.055 1.055 0 000 1.478 1.023 1.023 0 001.459 0l2.916-2.95A.993.993 0 0030 15a.983.983 0 00-.092-.408zM6.5 17H3.42l1.262-1.277a1.055 1.055 0 000-1.478L3.452 13h3.08l1.96 1.983L6.5 17z"/></svg>