<?xml version="1.0" encoding="iso-8859-1"?>
<!-- Generator: Adobe Illustrator 16.0.0, SVG Export Plug-In . SVG Version: 6.00 Build 0)  -->
<!DOCTYPE svg PUBLIC "-//W3C//DTD SVG 1.1//EN" "http://www.w3.org/Graphics/SVG/1.1/DTD/svg11.dtd">
<svg version="1.1" id="Capa_1" xmlns="http://www.w3.org/2000/svg" xmlns:xlink="http://www.w3.org/1999/xlink" x="0px" y="0px"
	 width="478.125px" height="478.125px" viewBox="0 0 478.125 478.125" style="enable-background:new 0 0 478.125 478.125;"
	 xml:space="preserve">
<g>
	<g>
		<path d="M145.35,233.325l34.425-47.812c11.475-17.213,32.513-17.213,43.988,0l34.425,47.812c5.737,9.562,19.125,15.3,30.6,15.3
			h19.125c53.551,0,95.625-42.075,95.625-95.625v-9.562c0-57.375-47.812-105.188-105.188-105.188H107.1
			C47.812,38.25,0,86.062,0,143.438V153c0,53.55,42.075,95.625,95.625,95.625h19.125
			C126.225,248.625,139.612,240.975,145.35,233.325z M114.75,229.5H95.625c-42.075,0-76.5-34.425-76.5-76.5v-9.562
			c0-47.812,38.25-86.062,86.062-86.062h191.25c47.812,0,86.062,38.25,86.062,86.062V153c0,42.075-34.425,76.5-76.5,76.5h-19.125
			c-3.825,0-11.475-3.825-15.3-7.65l-34.425-47.812c-19.125-28.688-55.463-28.688-74.588,0l-34.425,47.812
			C126.225,225.675,118.575,229.5,114.75,229.5z"/>
		<path d="M420.75,0v325.125c0,53.55-42.075,95.625-95.625,95.625S229.5,378.675,229.5,325.125h38.25V267.75H133.875v57.375h38.25
			c0,84.15,68.85,153,153,153s153-68.85,153-153V0H420.75z M459,325.125C459,399.713,399.713,459,325.125,459
			S191.25,399.713,191.25,325.125V306H153v-19.125h95.625V306h-38.25v19.125c0,63.112,51.638,114.75,114.75,114.75
			s114.75-51.638,114.75-114.75V114.75H459V325.125z M459,95.625h-19.125v-76.5H459V95.625z"/>
	</g>
</g>
<g>
</g>
<g>
</g>
<g>
</g>
<g>
</g>
<g>
</g>
<g>
</g>
<g>
</g>
<g>
</g>
<g>
</g>
<g>
</g>
<g>
</g>
<g>
</g>
<g>
</g>
<g>
</g>
<g>
</g>
</svg>
