<svg xmlns="http://www.w3.org/2000/svg" viewBox="0 0 100 100"><path fill="#F68C43" d="M12.632 94.492l17.289-54.35 17.29 54.35z"/><path fill="#F0566F" d="M29.921 40.142h40.158l17.289 54.35H47.211z"/><path fill="#FEE36F" d="M70.078 40.142l7.087 22.277c10.229-4.729 17.329-15.074 17.329-27.082 0-16.474-13.356-29.829-29.831-29.829S34.831 18.863 34.831 35.337c0 1.636.137 3.24.391 4.805h34.856z"/><path fill="#136296" d="M94.494 93.986h-6.756L77.78 62.683C88.254 57.651 95 46.969 95 35.337 95 18.611 81.391 5.002 64.663 5.002S34.326 18.611 34.326 35.337c0 1.422.11 2.865.314 4.299h-4.718a.485.485 0 00-.142.023l-.038.013c-.009.004-.019.006-.028.011a.55.55 0 00-.067.038c-.012.008-.024.014-.035.023a.566.566 0 00-.037.032c-.009.008-.016.017-.023.025-.013.014-.028.026-.039.042v.001c-.014.02-.022.044-.034.066-.01.018-.02.035-.028.055-.003.009-.009.015-.012.024L12.262 93.986H5.506a.506.506 0 100 1.012h88.989a.506.506 0 10-.001-1.012zm-65.078 0H13.323l16.093-50.587v50.587zM64.663 6.014c16.17 0 29.326 13.154 29.326 29.324 0 11.197-6.464 21.487-16.517 26.377L70.56 39.989a.506.506 0 00-.482-.352H35.655a29.61 29.61 0 01-.318-4.299c0-16.17 13.156-29.324 29.326-29.324zM30.427 93.986V43.4l9.439 29.671 6.654 20.916H30.427zm17.154 0L30.613 40.648h39.096l6.975 21.925 9.993 31.413H47.581z"/><path d="M35.312 42.428a.504.504 0 10-.96.316l.551 1.678a.506.506 0 00.961-.315l-.552-1.679zm8.337 25.703a.505.505 0 00-.963.308c.368 1.151.734 2.3 1.095 3.436a.506.506 0 10.964-.306l-1.096-3.438zm-2.207-6.871a.505.505 0 10-.962.31l1.105 3.431a.506.506 0 00.963-.309l-1.106-3.432zm-2.222-6.864a.506.506 0 00-.962.312l1.113 3.431a.506.506 0 10.962-.312l-1.113-3.431zm-2.236-6.864a.507.507 0 00-.962.314l1.12 3.431a.506.506 0 00.962-.313l-1.12-3.432zm8.849 27.477a.506.506 0 00-.964.304c.371 1.178.732 2.328 1.079 3.441a.505.505 0 10.965-.301c-.347-1.113-.709-2.265-1.08-3.444zm3.197 10.349a473.15 473.15 0 00-1.049-3.457.505.505 0 10-.967.297c.379 1.234.731 2.392 1.047 3.449a.506.506 0 00.969-.289zm2.74 4.773h-1.377a78.458 78.458 0 00-.363-1.338.504.504 0 10-.974.272c.185.661.338 1.23.454 1.693a.505.505 0 00.491.383h1.77a.506.506 0 10-.001-1.01zm25.767 0h-3.221a.506.506 0 100 1.012h3.221a.506.506 0 100-1.012zm-6.442 0h-3.221a.506.506 0 100 1.012h3.221a.506.506 0 100-1.012zm-12.883 0h-3.221a.506.506 0 100 1.012h3.221a.506.506 0 100-1.012zm6.442 0h-3.221a.506.506 0 100 1.012h3.221a.506.506 0 100-1.012zm17.874 0h-1.77a.506.506 0 100 1.012h1.77a.506.506 0 100-1.012z" fill="#FFF"/></svg>