<svg viewBox="0 0 64 64" xmlns="http://www.w3.org/2000/svg"><path d="M63.9 58.3l-18-31c-.2-.3-.6-.6-1-.6s-.8.2-1 .6l-8 13.9-4.8-8.3c0-.1-.1-.1-.1-.2l-7-12.3c-.4-.7-1.5-.7-1.9 0l-7 12.2c-.1.1-.2.3-.3.4L.1 58.3c-.2.3-.2.8 0 1.1s.6.6 1 .6h61.8c.4 0 .8-.2 1-.6.1-.3.1-.7 0-1.1zM45 30.1l3.7 6.4-1.2 1.2-1.9-1.9c-.4-.4-1.1-.4-1.6 0l-1.8 1.8-1-1 3.8-6.5zm-22-7l5.8 10-2.2 2.2-3.1-3.1c-.4-.4-1.1-.4-1.6 0L19.1 35l-1.9-1.9 5.8-10zm-6.9 12l2.3 2.3c.4.4 1.1.4 1.6 0l2.8-2.8 3.1 3.1c.2.2.5.3.8.3s.6-.1.8-.3l2.6-2.6L43 57.5l.2.3H3l13.1-22.7zm29.5 22.7l-8.3-14.4 2.8-4.9 1.4 1.4c.4.4 1.1.4 1.6 0l1.8-1.8 1.9 1.9c.2.2.5.3.8.3s.6-.1.8-.3l1.5-1.5L61 57.8H45.6zm-6.5-41.2c2 0 3.6-1.6 3.6-3.6s-1.6-3.6-3.6-3.6-3.6 1.6-3.6 3.6 1.6 3.6 3.6 3.6zm0-5c.8 0 1.4.6 1.4 1.4s-.6 1.4-1.4 1.4-1.4-.6-1.4-1.4.7-1.4 1.4-1.4zm0-3.5c.6 0 1.1-.5 1.1-1.1V5.1c0-.6-.5-1.1-1.1-1.1S38 4.5 38 5.1V7c0 .6.5 1.1 1.1 1.1zM38 19v1.9c0 .6.5 1.1 1.1 1.1s1.1-.5 1.1-1.1V19c0-.6-.5-1.1-1.1-1.1S38 18.4 38 19zm6-6c0 .6.5 1.1 1.1 1.1H47c.6 0 1.1-.5 1.1-1.1 0-.6-.5-1.1-1.1-1.1h-1.9c-.6 0-1.1.5-1.1 1.1zm-12.8 1.1h1.9c.6 0 1.1-.5 1.1-1.1 0-.6-.5-1.1-1.1-1.1h-1.9c-.6 0-1.1.5-1.1 1.1 0 .6.5 1.1 1.1 1.1zm12.2-4.2c.3 0 .6-.1.8-.3l1.4-1.4c.4-.4.4-1.1 0-1.6-.4-.4-1.1-.4-1.6 0L42.6 8c-.4.4-.4 1.1 0 1.6.2.2.5.3.8.3zm-9.3 6.6l-1.4 1.4c-.4.4-.4 1.1 0 1.6.2.2.5.3.8.3.3 0 .6-.1.8-.3l1.4-1.4c.4-.4.4-1.1 0-1.6-.5-.5-1.2-.5-1.6 0zm8.5 0c-.4.4-.4 1.1 0 1.6l1.4 1.4c.2.2.5.3.8.3.3 0 .6-.1.8-.3.4-.4.4-1.1 0-1.6l-1.4-1.4c-.5-.5-1.2-.5-1.6 0zm-8.5-6.9c.2.2.5.3.8.3.3 0 .6-.1.8-.3.4-.4.4-1.1 0-1.6l-1.4-1.4c-.4-.4-1.1-.4-1.6 0-.4.4-.4 1.1 0 1.6l1.4 1.4z"/></svg>