<svg fill="none" height="80" width="92" xmlns="http://www.w3.org/2000/svg"><circle cx="13.375" cy="65.125" fill="#000" r="10.75" stroke="#000"/><path d="M84.875 65.125c0 5.962-4.585 10.75-10.188 10.75-5.602 0-10.187-4.788-10.187-10.75s4.585-10.75 10.188-10.75c5.602 0 10.187 4.788 10.187 10.75z" fill="#000" stroke="#000"/><path d="M48.96 24.227V3a2 2 0 012-2h33.303c1.105 0 2 .894 2 1.999V21.25c0 14.087 10.658 40.5 0 40.5H3a2 2 0 01-2-2V46.938c0-5.532 16.297-11.99 31.438-16.622a291.893 291.893 0 0114.794-4.09l.194-.047a2.012 2.012 0 001.534-1.95z" fill="#0FC5FF"/><path d="M32.438 30.315C17.297 34.946 1 41.405 1 46.937V59.75a2 2 0 002 1.999h83.263c10.658 0 0-26.413 0-40.5V2.999a1.999 1.999 0 00-2-1.999H50.96a2 2 0 00-2 2v21.227c0 .926-.635 1.73-1.534 1.951l-.193.048m-14.795 4.09c2.466 1.386 7.274 5.026 6.781 8.498m-6.78-8.499c1.619-.495 3.225-.97 4.797-1.42m0 0c2.1 1.24 6.298 4.588 6.298 8.059m-6.298-8.059c1.74-.498 3.439-.967 5.065-1.401m0 0c2.055.88 6.041 3.633 5.548 7.6m-5.548-7.6c1.737-.464 3.393-.888 4.932-1.268m0 0c2.055 1.096 6.164 4.033 6.164 7.009" stroke="#000"/><path d="M48.96 61.75h37.303c7.237 0 3.396-12.75 3.7-16.737C89.208 54.93 85.342 52.665 67 54c-11.159.665-23.69.013-40.498.931-10.666 1.984-21.446.435-25.502-.587v4.927a2.472 2.472 0 002.466 2.479H48.96z" fill="#848187"/><path d="M26.502 46.937c0-7.033-6.468-9.97-10.169-10.678a1.844 1.844 0 00-1.046.119c-1.148.47-2.254.901-3.309 1.313C5.505 40.218 1 41.977 1 46.937v7.407c4.056 1.022 14.836 2.57 25.502.587v-7.994z" fill="#848187"/><path d="M48.96 61.75h37.303c7.237 0 3.396-12.75 3.7-16.737C89.208 54.93 85.342 52.665 67 54c-11.159.665-23.69.013-40.498.931-10.666 1.984-21.446.435-25.502-.587v4.927a2.472 2.472 0 002.466 2.479H48.96z" fill="#848187"/><path d="M48.96 61.75h37.303c7.237 0 3.396-12.75 3.7-16.737C89.208 54.93 85.342 52.665 67 54c-11.159.665-23.69.013-40.498.931-10.666 1.984-21.446.435-25.502-.587v4.927a2.472 2.472 0 002.466 2.479H48.96z" fill="#848187"/><path d="M48.96 61.75h37.303c7.237 0 3.396-12.75 3.7-16.737C89.208 54.93 85.342 52.665 67 54c-11.159.665-23.69.013-40.498.931-10.666 1.984-21.446.435-25.502-.587v4.927a2.472 2.472 0 002.466 2.479H48.96z" fill="#848187"/><path d="M1 46.937V59.27m0-12.334v7.407m0-7.407c0-4.96 4.505-6.719 10.978-9.246 1.055-.412 2.161-.844 3.31-1.313a1.844 1.844 0 011.045-.119c3.7.707 10.17 3.645 10.17 10.678M54.288 61.75H3.466m50.823 0h31.974m-31.974 0h31.974m0 0c7.237 0 3.396-12.75 3.7-16.737C89.208 54.93 85.342 52.665 67 54c-11.159.665-23.69.013-40.498.931m0-7.994v7.994m0-7.994v7.994m0 0C15.836 56.915 5.056 55.366 1 54.344m2.466 7.406A2.472 2.472 0 011 59.27m2.466 2.479H3a2 2 0 01-2-2v-.479m0 0v-4.927" stroke="#000"/><path d="M75.25 31.134l3.158 4.609.1.146.171.05 5.36 1.58-3.408 4.428-.108.141.005.178.153 5.585-5.263-1.872-.168-.06-.168.06-5.263 1.872.153-5.585.005-.178-.108-.14-3.407-4.428 5.359-1.58.17-.05.1-.147 3.159-4.609z" fill="#FFF387" stroke="#000"/><circle cx="80.313" cy="69.063" fill="#666" r="10.188" stroke="#000"/><path d="M28.625 69.063c0 5.652-4.334 10.187-9.625 10.187-5.29 0-9.625-4.535-9.625-10.188 0-5.652 4.334-10.187 9.625-10.187 5.29 0 9.625 4.535 9.625 10.188z" fill="#666" stroke="#000"/><circle cx="80.313" cy="69.063" fill="#fff" r="2.312"/><circle cx="80.313" cy="69.063" fill="#fff" r="2.312"/><circle cx="80.313" cy="69.063" fill="#fff" r="2.312"/><circle cx="80.313" cy="69.063" fill="#fff" r="2.312"/><circle cx="80.313" cy="69.063" fill="#fff" r="2.312"/><circle cx="80.313" cy="69.063" r="2.312" stroke="#000"/><path d="M21.875 69.063c0 1.195-1.198 2.312-2.875 2.312s-2.875-1.117-2.875-2.313c0-1.195 1.198-2.312 2.875-2.312s2.875 1.117 2.875 2.313z" fill="#fff"/><path d="M21.875 69.063c0 1.195-1.198 2.312-2.875 2.312s-2.875-1.117-2.875-2.313c0-1.195 1.198-2.312 2.875-2.312s2.875 1.117 2.875 2.313z" fill="#fff"/><path d="M21.875 69.063c0 1.195-1.198 2.312-2.875 2.312s-2.875-1.117-2.875-2.313c0-1.195 1.198-2.312 2.875-2.312s2.875 1.117 2.875 2.313z" fill="#fff"/><path d="M21.875 69.063c0 1.195-1.198 2.312-2.875 2.312s-2.875-1.117-2.875-2.313c0-1.195 1.198-2.312 2.875-2.312s2.875 1.117 2.875 2.313z" fill="#fff"/><path d="M21.875 69.063c0 1.195-1.198 2.312-2.875 2.312s-2.875-1.117-2.875-2.313c0-1.195 1.198-2.312 2.875-2.312s2.875 1.117 2.875 2.313z" fill="#fff"/><path d="M21.875 69.063c0 1.195-1.198 2.312-2.875 2.312s-2.875-1.117-2.875-2.313c0-1.195 1.198-2.312 2.875-2.312s2.875 1.117 2.875 2.313z" stroke="#000"/></svg>