<?xml version="1.0" encoding="iso-8859-1"?>
<!-- Generator: Adobe Illustrator 21.0.0, SVG Export Plug-In . SVG Version: 6.00 Build 0)  -->
<svg xmlns="http://www.w3.org/2000/svg" xmlns:xlink="http://www.w3.org/1999/xlink" version="1.1" id="Capa_1" x="0px" y="0px" viewBox="0 0 512 512" style="enable-background:new 0 0 512 512;" xml:space="preserve" width="512" height="512">
<g>
	<path d="M420.7,184.3c0,11.1-1.199,21.599-3.6,32.1c-10.499,48.6-42.9,89.399-86.4,111.301c0.3,1.199,0.3,2.098,0.3,3.3   c0,58.652-31.355,110.356-75,137.999c25.8,17.1,56.7,27.001,90,27.001c90.901,0,166-74.101,166-165   C512,267.1,474.101,211.3,420.7,184.3z"/>
	<path d="M256,346c-15.601,0-30.601-2.1-44.7-6.301c2.401,36.301,19.2,68.699,44.7,91.5c25.499-22.8,42.299-55.199,44.7-91.5   C286.601,343.9,271.601,346,256,346z"/>
	<path d="M181,331c0-1.201,0-2.1,0.3-3.3C137.8,305.799,105.399,265,94.9,216.4c-2.401-10.501-3.6-21-3.6-32.1   C37.899,211.3,0,267.1,0,331c0,90.899,75.099,165,166,165c33.3,0,64.2-9.901,90-27.001C212.485,441.438,181,389.801,181,331z"/>
	<path d="M122.8,203.2c6.601,39,29.7,72.299,62.1,92.401c6.899-32.1,23.399-60.601,46.199-82.8   C196.555,193.367,155.341,191.627,122.8,203.2z"/>
	<path d="M389.2,203.2c-32.503-11.559-73.709-9.858-108.3,9.6c22.8,22.2,39.3,50.7,46.199,82.8   C359.5,275.499,382.599,242.199,389.2,203.2z"/>
	<path d="M256,316c15.3,0,29.7-2.401,43.2-7.2c-5.099-30.901-20.7-58.2-43.2-78.001c-22.5,19.801-38.101,47.1-43.2,78.001   C226.3,313.599,240.7,316,256,316z"/>
	<path d="M256,192.999c50.577-33.525,114.857-35.176,164.7-8.699c0.3-1.199,0.3-2.1,0.3-3.3c0-90.901-74.099-165-165-165   S91,90.099,91,181c0,1.199,0,2.1,0.3,3.3C141.074,157.859,205.359,159.434,256,192.999z"/>
</g>















</svg>
