<svg xmlns="http://www.w3.org/2000/svg" width="512" height="512"><path d="M420.7 184.3c0 11.1-1.199 21.599-3.6 32.1-10.499 48.6-42.9 89.399-86.4 111.301.3 1.199.3 2.098.3 3.3 0 58.652-31.355 110.356-75 137.999 25.8 17.1 56.7 27.001 90 27.001 90.901 0 166-74.101 166-165C512 267.1 474.101 211.3 420.7 184.3zM256 346c-15.601 0-30.601-2.1-44.7-6.301 2.401 36.301 19.2 68.699 44.7 91.5 25.499-22.8 42.299-55.199 44.7-91.5C286.601 343.9 271.601 346 256 346zm-75-15c0-1.201 0-2.1.3-3.3-43.5-21.901-75.901-62.7-86.4-111.3-2.401-10.501-3.6-21-3.6-32.1C37.899 211.3 0 267.1 0 331c0 90.899 75.099 165 166 165 33.3 0 64.2-9.901 90-27.001-43.515-27.561-75-79.198-75-137.999zm-58.2-127.8c6.601 39 29.7 72.299 62.1 92.401 6.899-32.1 23.399-60.601 46.199-82.8-34.544-19.434-75.758-21.174-108.299-9.601zm266.4 0c-32.503-11.559-73.709-9.858-108.3 9.6 22.8 22.2 39.3 50.7 46.199 82.8 32.401-20.101 55.5-53.401 62.101-92.4zM256 316c15.3 0 29.7-2.401 43.2-7.2-5.099-30.901-20.7-58.2-43.2-78.001-22.5 19.801-38.101 47.1-43.2 78.001 13.5 4.799 27.9 7.2 43.2 7.2z"/><path d="M256 192.999c50.577-33.525 114.857-35.176 164.7-8.699.3-1.199.3-2.1.3-3.3 0-90.901-74.099-165-165-165S91 90.099 91 181c0 1.199 0 2.1.3 3.3 49.774-26.441 114.059-24.866 164.7 8.699z"/></svg>